<svg id="Layer_1" data-name="Layer 1" xmlns="http://www.w3.org/2000/svg" viewBox="0 0 297.34 139.35"><path d="M48.81,70.08a4,4,0,0,1-.08.5c0,.27-.12.58-.2.94s-.16.72-.23,1.1-.12.73-.15,1A15.79,15.79,0,0,0,48,75.32a16.77,16.77,0,0,1-.12,1.76,21.39,21.39,0,0,1-.46,2.55l-.6,2.54a1.29,1.29,0,0,0,.53.18,1.59,1.59,0,0,1,.5.12.88.88,0,0,1,.36.3,1.51,1.51,0,0,1,.12.71,1.13,1.13,0,0,1-.28.58c-.18.25-.36.48-.52.68a1,1,0,0,1-.51.38,3.37,3.37,0,0,0-.6.27,1.53,1.53,0,0,0-.56,1.06c-.1.54-.18,1-.25,1.26a4.87,4.87,0,0,1-.18.66,6.43,6.43,0,0,0-.17.65.54.54,0,0,1-.2.2.81.81,0,0,0-.26.31,5.71,5.71,0,0,0-.17.88q-.07.57-.15,1.26L44.35,93a10.79,10.79,0,0,0-.08,1.13c0,.5-.07,1-.12,1.51a6.28,6.28,0,0,0,0,1.56,1.17,1.17,0,0,1-.45.56c0,.06,0,.23,0,.5s0,.56-.1.86a3.48,3.48,0,0,1-.23.83c-.1.25-.25.38-.45.38a.75.75,0,0,1-.55-.26,3.28,3.28,0,0,1-.46-.57,4.68,4.68,0,0,1-.32-.63,1.32,1.32,0,0,1-.13-.41c-.17-.87-.3-1.78-.4-2.72a27,27,0,0,1-.15-2.87c0-1.91,0-3.43.1-4.56s.1-1.89.1-2.29a15,15,0,0,0-3.53.13c-1.34.18-2.85.34-4.53.47a4.91,4.91,0,0,0-.68,1.16A3.91,3.91,0,0,0,32,89a9.53,9.53,0,0,1-.35,2.45,9,9,0,0,0-.36,2.44V95a.72.72,0,0,1,.16.25.58.58,0,0,0,.15.25,7,7,0,0,1,.12.86,1.08,1.08,0,0,0,.43.7v.46a3.85,3.85,0,0,1-.83.1h-.68a.9.9,0,0,1-.48-.18,1.46,1.46,0,0,1-.38-.33,14.53,14.53,0,0,1-1.16-1.78,7.21,7.21,0,0,1-.8-2.1c0-.37-.06-.76-.08-1.18s0-.86,0-1.34,0-1.17.1-1.91.1-1.39.1-2a3.51,3.51,0,0,1-1.19-.13,5,5,0,0,1-1.28-.53,4.22,4.22,0,0,1-1.08-.91A2.11,2.11,0,0,1,23.87,84a.19.19,0,0,1,.05-.1.26.26,0,0,0,.1-.2,1.71,1.71,0,0,0,.65.1h.66c.17,0,.55,0,1.16-.1s1.19-.12,1.76-.15a.57.57,0,0,1,.23-.15.28.28,0,0,0,.17-.15q.92-4.33,2-8.06T33,67.46a.36.36,0,0,0,0-.25.68.68,0,0,1-.05-.25.25.25,0,0,0,.17-.08.5.5,0,0,1,.33-.07,2.14,2.14,0,0,1,.63.12,2.08,2.08,0,0,1,.63.33A4.68,4.68,0,0,1,36,68.87a3.74,3.74,0,0,1,.33,1.51c0,.07,0,.34-.1.81s-.14,1-.23,1.66-.17,1.29-.27,2-.2,1.26-.31,1.76a6.21,6.21,0,0,1-.32,1,4.13,4.13,0,0,0-.28,1.14,9.47,9.47,0,0,1-.07,1.18c-.06.32-.11.62-.18.91s-.14.57-.23.85l-.28,1,.11.1a4,4,0,0,0,.85,0l1-.13.89-.13.5,0,.55,0,1.09,0,1.31,0c.45,0,.86,0,1.23-.08.14-1.07.34-2.2.61-3.37s.57-2.36.9-3.56.69-2.35,1.06-3.47.74-2.18,1.11-3.15a7,7,0,0,1,.38-1A6.77,6.77,0,0,1,46,67c.14-.22.27-.33.41-.33A1.35,1.35,0,0,1,47,67c.27.19.54.36.81.53.06.2.15.43.25.68l.3.76.28.68A1.45,1.45,0,0,1,48.81,70.08Z" fill="#231f20"/><path d="M70.87,93.2a1.39,1.39,0,0,1-.4.56,2.4,2.4,0,0,0-.45.45.52.52,0,0,0-.16.4.71.71,0,0,1-.1.41l-.83,1.11c-.35.47-.71.92-1.08,1.36a2.51,2.51,0,0,1-.56.35,7.12,7.12,0,0,1-.93.38c-.35.11-.72.22-1.11.32a4.13,4.13,0,0,1-1,.15,3.21,3.21,0,0,1-.78-.17,6,6,0,0,1-.88-.33,2.35,2.35,0,0,1-1-.73,11.86,11.86,0,0,1-.8-1,6.38,6.38,0,0,1-.46-.83,5.35,5.35,0,0,1-.35-.94,9.2,9.2,0,0,1-.25-2.26c0-.84,0-1.7.1-2.57,0-.34.07-.72.12-1.16a2.56,2.56,0,0,0,0-.81,1.85,1.85,0,0,0-.35.43c-.2.29-.32.46-.36.53-.33.54-.72,1.22-1.15,2s-.91,1.77-1.41,2.85q-.55,1-1,2a8.34,8.34,0,0,1-1.11,1.89,1.71,1.71,0,0,1-.5.55,2.68,2.68,0,0,1-.81.25l-.5.1a1.84,1.84,0,0,1-.61,0l-.65,0c-.14,0-.34-.14-.61-.43a8.42,8.42,0,0,1-.78-1c-.25-.35-.48-.69-.68-1a2.82,2.82,0,0,1-.3-.53.61.61,0,0,1-.08-.35,2.17,2.17,0,0,0,0-.4,8.51,8.51,0,0,1,.78-3.13,28.09,28.09,0,0,1,2-3.8,44.5,44.5,0,0,1,2.52-3.7,22.92,22.92,0,0,1,2.45-2.82,7.32,7.32,0,0,1,.88-.66,2.74,2.74,0,0,1,1.58-.5,2.56,2.56,0,0,1,.51,0,3.29,3.29,0,0,1,.6.15,5.82,5.82,0,0,1,.78.4,1.56,1.56,0,0,1,.63.5v.91c.27.1.64.27,1.11.5a2.75,2.75,0,0,0,1,.36h.3a.25.25,0,0,0,.15-.1l.3.25a1.26,1.26,0,0,1,.51.5,1.37,1.37,0,0,1,.25.56A5.52,5.52,0,0,1,65,85.7,12.4,12.4,0,0,0,64.22,88q-.15.62-.3,1.41c-.1.54-.2,1.06-.3,1.57s-.18,1-.23,1.33-.07.61-.07.68L63.21,96a3.7,3.7,0,0,0,.48,0,3.64,3.64,0,0,1,.48,0,5.23,5.23,0,0,0,1.49-.32,11.49,11.49,0,0,0,1.51-.73l1.66-1c.59-.35,1.24-.71,1.94-1.08a.25.25,0,0,0,.08.18A.14.14,0,0,1,70.87,93.2Zm-17.63.1-.1.46a15.26,15.26,0,0,0,1.56-1.61c.57-.68,1.06-1.26,1.46-1.77s.78-1,1.13-1.46a15.25,15.25,0,0,0,1-1.51c.32-.54.63-1.13.93-1.76s.64-1.38,1-2.22A17.24,17.24,0,0,0,57.6,85.8a17.63,17.63,0,0,0-1.89,2.47,21.73,21.73,0,0,0-1.39,2.51C53.94,91.63,53.57,92.47,53.24,93.3Z" fill="#231f20"/><path d="M85.68,87a6.41,6.41,0,0,1-.1,1.1c-.07.41-.14.81-.22,1.21a11.06,11.06,0,0,1-.31,1.14,7.36,7.36,0,0,1-.32.83.47.47,0,0,0,0,.3.63.63,0,0,1-.08.4c0,.1-.18.47-.45,1.09a18.2,18.2,0,0,1-1,2A13.2,13.2,0,0,1,81.73,97a2.18,2.18,0,0,1-1.54.88.58.58,0,0,1-.35-.08l-.2-.17a3.85,3.85,0,0,1-1.09-.31,4.91,4.91,0,0,1-1.08-.63,4.08,4.08,0,0,1-.86-.85,1.73,1.73,0,0,1-.35-1,1.81,1.81,0,0,1,.08-.51,1.73,1.73,0,0,0,.07-.5c.24.3.5.62.78.95a3.79,3.79,0,0,0,.84.76A6.51,6.51,0,0,0,80,93.08a18.25,18.25,0,0,0,1.09-2.85c.06-.17.17-.38.3-.65a4.43,4.43,0,0,0,.3-.81,8.56,8.56,0,0,0,.18-.93c0-.35.08-.7.1-1s0-.64,0-.91,0-.46,0-.55,0-.27,0-.51,0-.49,0-.75,0-.54,0-.81,0-.49,0-.66c0,0,0,0,0-.05h0a.2.2,0,0,1-.1,0,.17.17,0,0,0-.1,0,2.72,2.72,0,0,0-1.86,1.11A16.48,16.48,0,0,0,78,86.15c-.57.94-1,1.83-1.46,2.67a8,8,0,0,0-.65,1.61c-.07.41-.17.9-.3,1.49s-.27,1.13-.41,1.64a.42.42,0,0,0,0,.3.61.61,0,0,1,0,.4q-.9,3.78-2,7.78a75.37,75.37,0,0,1-2.54,7.74c-.07.07-.16.16-.28.3l-.28.3a1.72,1.72,0,0,1-1-.48A9.75,9.75,0,0,1,68,108.74a7.93,7.93,0,0,1-1-1.46,3.06,3.06,0,0,1-.4-1.38c0-.07,0-.21,0-.43s.07-.45.1-.7.07-.51.1-.76a5.89,5.89,0,0,0,0-.68,17.54,17.54,0,0,1,.71-3.5C68,98.6,68.42,97.33,69,96s1.12-2.65,1.76-4,1.28-2.75,1.91-4.13a2.83,2.83,0,0,0,.26-1A10.25,10.25,0,0,1,73,85.6c.16-1,.32-1.83.45-2.55a11.63,11.63,0,0,0,.2-1.33,7.43,7.43,0,0,1,.2-1.56,2,2,0,0,1,.33-.71.46.46,0,0,1,.38-.18l.35,0a1.44,1.44,0,0,0,.73-.38,1.44,1.44,0,0,1,.78-.38,1,1,0,0,1,.61.15.82.82,0,0,1,.27.41,1.63,1.63,0,0,1,.08.55,1.9,1.9,0,0,0,.1.61v1.28c0,.42,0,.66.1.73s.28-.1.43-.3a1.2,1.2,0,0,1,.43-.4,6.15,6.15,0,0,1,1.94-.73,10.12,10.12,0,0,1,1.33-.23,1.75,1.75,0,0,1,.46.08,5.37,5.37,0,0,1,.68.2,4.26,4.26,0,0,1,.73.32,2,2,0,0,1,.55.46,3.9,3.9,0,0,1,.68,1.08,11.37,11.37,0,0,1,.48,1.36,9.32,9.32,0,0,1,.28,1.49A13.62,13.62,0,0,1,85.68,87ZM71.07,94.61c-.2.58-.43,1.18-.68,1.82s-.46,1.19-.63,1.66-.22.81-.35,1.31-.25,1-.35,1.49-.18.9-.23,1.26-.07.56-.07.62v.61a.83.83,0,0,0,.37-.28,1.75,1.75,0,0,1,.23-.27,35.85,35.85,0,0,0,.93-4C70.54,97.39,70.8,96,71.07,94.61Z" fill="#231f20"/><path d="M102.91,87a6.41,6.41,0,0,1-.1,1.1c-.07.41-.14.81-.23,1.21a9,9,0,0,1-.3,1.14,5.69,5.69,0,0,1-.33.83.56.56,0,0,0,0,.3.63.63,0,0,1-.08.4c0,.1-.18.47-.45,1.09a18.2,18.2,0,0,1-1,2A13.2,13.2,0,0,1,99,97a2.18,2.18,0,0,1-1.54.88.58.58,0,0,1-.35-.08l-.2-.17a3.85,3.85,0,0,1-1.09-.31,4.91,4.91,0,0,1-1.08-.63,4.08,4.08,0,0,1-.86-.85,1.73,1.73,0,0,1-.35-1,1.81,1.81,0,0,1,.08-.51,1.73,1.73,0,0,0,.07-.5c.24.3.5.62.78.95a4,4,0,0,0,.83.76,6.43,6.43,0,0,0,1.94-2.39,18.25,18.25,0,0,0,1.09-2.85,5.47,5.47,0,0,1,.3-.65,4.43,4.43,0,0,0,.3-.81,8.56,8.56,0,0,0,.18-.93c0-.35.08-.7.1-1s0-.64,0-.91,0-.46,0-.55,0-.27,0-.51,0-.49,0-.75,0-.54,0-.81,0-.49,0-.66c0,0,.05,0,.05-.05h-.05a.2.2,0,0,1-.1,0,.19.19,0,0,0-.1,0,2.72,2.72,0,0,0-1.86,1.11,16.48,16.48,0,0,0-1.87,2.52c-.57.94-1,1.83-1.46,2.67a8,8,0,0,0-.65,1.61c-.07.41-.17.9-.3,1.49s-.27,1.13-.41,1.64a.42.42,0,0,0,0,.3.61.61,0,0,1,0,.4c-.6,2.52-1.27,5.11-2,7.78a75.37,75.37,0,0,1-2.54,7.74c-.07.07-.16.16-.28.3l-.28.3a1.72,1.72,0,0,1-1-.48,9.75,9.75,0,0,1-1.16-1.16,7.93,7.93,0,0,1-1-1.46,3.06,3.06,0,0,1-.4-1.38c0-.07,0-.21.05-.43s.07-.45.1-.7.07-.51.1-.76a5.89,5.89,0,0,0,.05-.68,17.54,17.54,0,0,1,.71-3.5c.37-1.23.82-2.5,1.36-3.81s1.12-2.65,1.76-4,1.28-2.75,1.91-4.13a2.83,2.83,0,0,0,.26-1,10.25,10.25,0,0,1,.15-1.21c.16-1,.32-1.83.45-2.55a11.63,11.63,0,0,0,.2-1.33,6.81,6.81,0,0,1,.2-1.56,2,2,0,0,1,.33-.71.46.46,0,0,1,.38-.18l.35,0a1.44,1.44,0,0,0,.73-.38,1.44,1.44,0,0,1,.78-.38,1,1,0,0,1,.61.15.82.82,0,0,1,.27.41,1.92,1.92,0,0,1,.08.55,1.9,1.9,0,0,0,.1.61v1.28c0,.42,0,.66.1.73s.28-.1.43-.3a1.2,1.2,0,0,1,.43-.4,6.15,6.15,0,0,1,1.94-.73A10.12,10.12,0,0,1,99,80.61a1.75,1.75,0,0,1,.46.08,5.37,5.37,0,0,1,.68.2,4.26,4.26,0,0,1,.73.32,2,2,0,0,1,.55.46,3.9,3.9,0,0,1,.68,1.08,11.37,11.37,0,0,1,.48,1.36,9.32,9.32,0,0,1,.28,1.49A13.62,13.62,0,0,1,102.91,87ZM88.3,94.61c-.2.58-.43,1.18-.68,1.82s-.46,1.19-.63,1.66-.22.81-.35,1.31-.25,1-.35,1.49-.18.9-.23,1.26-.07.56-.07.62v.61a.83.83,0,0,0,.37-.28,1.75,1.75,0,0,1,.23-.27,35.85,35.85,0,0,0,.93-4C87.77,97.39,88,96,88.3,94.61Z" fill="#231f20"/><path d="M123.36,84.39c0,.1,0,.34-.07.73s-.13.82-.23,1.31-.21,1-.32,1.48-.23.91-.33,1.21c-.3,1-.6,1.93-.88,2.77l-.86,2.47c-.29.81-.57,1.63-.86,2.47s-.58,1.76-.88,2.77a36.94,36.94,0,0,0-.9,4.06,23,23,0,0,0-.36,3.9c0,.1,0,.29,0,.55s0,.58.07.94.07.71.1,1.08a6.83,6.83,0,0,0,.16,1,2.47,2.47,0,0,0,.15.43,1.28,1.28,0,0,1,.1.47,1,1,0,0,1-.28.63,3.3,3.3,0,0,1-.53.53l-.1-.1a.19.19,0,0,0-.13,0,.17.17,0,0,1-.12,0,2.05,2.05,0,0,1-1.41-1.16,8.83,8.83,0,0,1-.86-2.34,22.47,22.47,0,0,1-.43-2.67c-.08-.89-.12-1.59-.12-2.09a23.7,23.7,0,0,1,.55-4.89q.56-2.61,1.36-5.24c.54-1.74,1.08-3.42,1.64-5s1-3,1.38-4.29c0,0,0,0,0,0l-.1-.3a22,22,0,0,0-1.43,1.94c-.56.82-1,1.52-1.44,2.09q-.41.56-1.23,1.89c-.56.89-1.19,1.8-1.89,2.72A16.63,16.63,0,0,1,110.92,96,3.6,3.6,0,0,1,108.55,97a2.24,2.24,0,0,1-1.56-.6A4.74,4.74,0,0,1,106,95a7.63,7.63,0,0,1-.56-1.67,7.52,7.52,0,0,1-.17-1.31,10.8,10.8,0,0,1,.45-2.79,33.16,33.16,0,0,1,1.14-3.35,31,31,0,0,1,1.53-3.3A20.2,20.2,0,0,1,110,80a.71.71,0,0,1,.45-.32,1.79,1.79,0,0,1,.65-.13,1,1,0,0,1,1,.73,3.32,3.32,0,0,1,.3,1.19,7.69,7.69,0,0,1-.1,1,5.62,5.62,0,0,1-.3,1.21q-.86,2.11-1.86,4.41c-.68,1.53-1.3,3-1.87,4.46v.4c.4-.2.87-.46,1.39-.78a8.65,8.65,0,0,0,1.23-.88,37.28,37.28,0,0,0,2.77-2.75q1.52-1.64,2.85-3.12l2.27-2.55q.93-1,1.08-1A2.92,2.92,0,0,1,121,82a5.94,5.94,0,0,1,1.13.63,3.79,3.79,0,0,1,.88.86A1.52,1.52,0,0,1,123.36,84.39Z" fill="#231f20"/><path d="M148.3,84.49a17.43,17.43,0,0,1,.28,1.94c0,.59.07,1.38.07,2.39a17.06,17.06,0,0,1-.27,2.47,15.81,15.81,0,0,1-1,3.32,9.77,9.77,0,0,1-1.79,2.9,3.64,3.64,0,0,1-2.82,1.24,2.94,2.94,0,0,1-1.71-.58,7,7,0,0,1-1.44-1.39,8.9,8.9,0,0,1-1-1.66,8.79,8.79,0,0,1-.55-1.41,7.42,7.42,0,0,1-.28-2.82c.08-1,.12-2,.12-3-.57.58-1.24,1.21-2,1.92s-1.5,1.39-2.17,2.06c-.27.31-.69.84-1.28,1.59s-1.22,1.52-1.89,2.29a26.57,26.57,0,0,1-2,2.07,2.79,2.79,0,0,1-1.64.91h-.85c-.07,0-.16-.11-.28-.31s-.25-.43-.38-.7a8.23,8.23,0,0,1-.33-.78,2.18,2.18,0,0,1-.12-.53,13.66,13.66,0,0,1,.53-3.23c.35-1.37.78-2.77,1.28-4.2s1-2.77,1.54-4a25,25,0,0,1,1.28-2.75,18,18,0,0,1,.86-1.76c.27-.44.54-.84.8-1.21a1.09,1.09,0,0,1,.81-.56.94.94,0,0,1,.68.28,2,2,0,0,1,.43.66,3,3,0,0,1,.2.73c0,.23.05.38.05.45a5.24,5.24,0,0,1-.3,1.16c-.2.6-.37,1.13-.51,1.56-.2.64-.49,1.45-.88,2.42s-.78,2-1.18,3.1-.79,2.16-1.16,3.22-.67,2-.91,2.8a0,0,0,0,0-.05.05.6.6,0,0,0,.1.3c1-1.14,2-2.38,3-3.7s2-2.46,2.77-3.4a11.84,11.84,0,0,0,.9-1.36,13.08,13.08,0,0,1,.84-1.29,4.56,4.56,0,0,1,.95-1,2.28,2.28,0,0,1,1.34-.37,1.48,1.48,0,0,1,.55.12,1.59,1.59,0,0,0,.66.13c1.1,0,1.78.28,2,.76a3.83,3.83,0,0,1,.35,1.76c0,.1,0,.43-.1,1s-.13,1.14-.2,1.76-.13,1.2-.2,1.74-.1.86-.1,1,0,.51.08,1a8.31,8.31,0,0,0,.22,1.34,5.19,5.19,0,0,0,1.19-1.64,10.05,10.05,0,0,0,.65-1.94,13.87,13.87,0,0,0,.3-2c.05-.67.1-1.29.13-1.86.07-1.11.07-2.38,0-3.83a19.94,19.94,0,0,0-.47-3.83.45.45,0,0,1,.15-.12,1,1,0,0,1,.35,0,1.74,1.74,0,0,1,.76.3c.33.21.63.41.9.61l0,0s.07,0,.2,0,.27,0,.21,0,0,0,.2,0a.39.39,0,0,1,.37.28.45.45,0,0,0,.43.27Z" fill="#231f20"/><path d="M158.43,83.38a1.86,1.86,0,0,0,0,.48.71.71,0,0,1,0,.43L158,85.57c-.13.39-.27.78-.4,1.19s-.26.84-.38,1.3-.22,1-.33,1.62-.2,1-.3,1.63-.19,1.22-.27,1.79-.16,1.07-.21,1.49-.07.68-.07.78a5.61,5.61,0,0,0,.17,1,9.17,9.17,0,0,0,.43,1.34,1,1,0,0,0,.81.15,2.55,2.55,0,0,0,.05.35.66.66,0,0,1,0,.35A4.13,4.13,0,0,0,157,99a.87.87,0,0,1-.56.3,1.5,1.5,0,0,1-.73-.33,5.28,5.28,0,0,1-.73-.58,5.62,5.62,0,0,1-.91-1.41,15.72,15.72,0,0,1-.7-1.76,15.28,15.28,0,0,1-.48-1.82,8.11,8.11,0,0,1-.18-1.56,17.48,17.48,0,0,1,.84-5.94,38.16,38.16,0,0,1,2.39-5.8h.5a4.2,4.2,0,0,1,1.61,1.74A4.28,4.28,0,0,1,158.43,83.38ZM161.15,76c0,.68-.13,1.1-.48,1.29a2.93,2.93,0,0,1-1.34.28,3.84,3.84,0,0,1-2.87-1.82,1.58,1.58,0,0,1-.38-.75,7.53,7.53,0,0,1-.1-.83,6.12,6.12,0,0,0-.1-.86,2.42,2.42,0,0,0-.32-.83l.3-.3a2.44,2.44,0,0,1,.83.32c.32.19.63.39.93.61l.83.6c.25.19.43.31.53.38a1.76,1.76,0,0,0,.66.1,1,1,0,0,1,.65.2c.17.24.35.52.55.86A1.64,1.64,0,0,1,161.15,76Z" fill="#231f20"/><path d="M184.67,94.66a5.52,5.52,0,0,1-.8,1.09c-.34.35-.7.7-1.09,1.06s-.76.68-1.13,1-.69.62-1,.88a1.1,1.1,0,0,1-.4.21l-.68.22a6.88,6.88,0,0,1-.68.2,2.39,2.39,0,0,1-.4.08,2.26,2.26,0,0,1-.53-.1c-.25-.07-.54-.16-.86-.28a8.09,8.09,0,0,1-1-.43,6.27,6.27,0,0,1-.83-.5,3.58,3.58,0,0,1-.83-1L173.89,96c-.17-.26-.35-.54-.55-.83a6,6,0,0,1-.56-1,8.26,8.26,0,0,1-.63-2.85,11.3,11.3,0,0,1,.28-3.45s0,0,0,0a.5.5,0,0,0,0-.15,12.09,12.09,0,0,0-1,1.29c-.33.48-.64.9-.9,1.23s-.8,1.08-1.49,2-1.38,1.9-2.09,2.89S165.6,97,165,97.71a5.91,5.91,0,0,1-1,1.14h-.71a.33.33,0,0,1-.3-.21,1.25,1.25,0,0,1-.13-.45c0-.17,0-.33,0-.48a.45.45,0,0,0,0-.27,8.51,8.51,0,0,1-.76-1.24,2.58,2.58,0,0,1-.25-1.08,16.7,16.7,0,0,1,.43-3.35c.28-1.36.62-2.72,1-4.08s.75-2.57,1.11-3.63.58-1.72.68-2,.4-.91.7-1.54.55-1.2.76-1.73c.57,0,1.15,0,1.74,0l1.13-.06a.51.51,0,0,1,.38.23,3.88,3.88,0,0,1,.3.48,1.93,1.93,0,0,1,.17.53,2.35,2.35,0,0,1,.06.33,1.34,1.34,0,0,1-.18.6c-.12.24-.25.47-.38.71s-.28.46-.43.68a1.92,1.92,0,0,0-.27.48c-.17.4-.34.83-.51,1.28s-.35.95-.55,1.49a5.78,5.78,0,0,0-.43,1.43c0,.39-.09.88-.13,1.49q1.11-1.26,1.89-2.34c.52-.73,1-1.36,1.46-1.89a5.92,5.92,0,0,1,1.44-1.26,3.38,3.38,0,0,1,1.81-.46l.48,0,.71.07a5.93,5.93,0,0,1,.73.16,1.11,1.11,0,0,1,.5.25,1.53,1.53,0,0,1,.66,1,6.76,6.76,0,0,1,.1,1,6.1,6.1,0,0,1-.26,1.69c-.16.59-.35,1.2-.55,1.84s-.39,1.28-.55,1.94a7.88,7.88,0,0,0-.26,2q0,.81,0,1.56a4.71,4.71,0,0,0,.23,1.36,2,2,0,0,0,.68,1,2.1,2.1,0,0,0,1.33.38,6.26,6.26,0,0,0,1.71-.25c.61-.17,1.21-.36,1.82-.58l1.74-.66C183.69,95,184.2,94.8,184.67,94.66Z" fill="#231f20"/><path d="M205,70.43a4.24,4.24,0,0,1-.41,1.24c-.27.62-.57,1.27-.9,2s-.65,1.31-.94,1.87a4.11,4.11,0,0,0-.42,1c-.54,2-1.09,4.14-1.64,6.37a37,37,0,0,0-1,7,7.22,7.22,0,0,0-.13,1.28c0,.56,0,.92,0,1.09a6.47,6.47,0,0,1,.08,1c0,.49,0,1,.08,1.54a4.38,4.38,0,0,0,.47,2.21,2,2,0,0,0,1.54.46,5.81,5.81,0,0,0,2.39-.56,18.24,18.24,0,0,0,2.14-1.11l.06.56q-.26.3-.63.78a10.37,10.37,0,0,1-.84.93c-.3.3-.6.59-.9.86a3.85,3.85,0,0,1-.91.6,10.06,10.06,0,0,1-1.64,0,6.59,6.59,0,0,1-1.18-.33l-.48-.2a1.16,1.16,0,0,1-.38-.26A10.84,10.84,0,0,1,197,96.2a6.69,6.69,0,0,1-1.11-2.8,22,22,0,0,1-.26-4.4q.1-2.15,0-4.41a7.56,7.56,0,0,1-.47,1c-.22.39-.44.8-.66,1.24s-.44.84-.65,1.23-.4.71-.53,1c-.37.71-.69,1.38-1,2s-.53,1.27-.78,1.91-.51,1.3-.78,2-.59,1.41-1,2.21l-.22.23-.23.23a.26.26,0,0,1-.1.3,1.29,1.29,0,0,1-.33.17,2.09,2.09,0,0,1-.4.13,1.67,1.67,0,0,0-.33.1l-.38.15a1.46,1.46,0,0,1-.53.1,1.91,1.91,0,0,1-.7-.17,7.22,7.22,0,0,1-.78-.41,3.81,3.81,0,0,1-.63-.45l-.31-.28a13.53,13.53,0,0,1-.95-1.66,5.33,5.33,0,0,1-.61-1.91,15.55,15.55,0,0,1,.2-3.4,22,22,0,0,1,.94-3.63A20,20,0,0,1,186,83.28a11.78,11.78,0,0,1,2-2.62,1.47,1.47,0,0,1,.68-.25,9.47,9.47,0,0,1,1.18-.15c.44,0,.87-.06,1.29-.08s.74,0,1,0a2.58,2.58,0,0,1,.86.27,12.42,12.42,0,0,1,1.1.58,1.21,1.21,0,0,1-.2,1.06c-.23.34-.42.62-.55.86a7,7,0,0,0-.51,1c-.13.35-.25.71-.35,1.08a2.22,2.22,0,0,0-.35.31,1.61,1.61,0,0,1-.45.3.18.18,0,0,1-.11-.05.32.32,0,0,0-.25-.1c.07-.34.13-.68.18-1a2.58,2.58,0,0,0-.08-1.06,8.36,8.36,0,0,0-1.89,2.09,15.11,15.11,0,0,0-1.38,2.72,21.6,21.6,0,0,0-.88,2.85q-.33,1.41-.48,2.52a.43.43,0,0,0-.13.25.45.45,0,0,1-.12.25l.25,1.36a1.28,1.28,0,0,0,.48-.35,1.84,1.84,0,0,0,.33-.51q1.71-3,3.45-5.76c1.15-1.87,2.23-3.61,3.22-5.24s1.85-3.11,2.57-4.44a18.13,18.13,0,0,0,1.49-3.35.34.34,0,0,1,.22-.22.58.58,0,0,0,.28-.28c.1-.3.28-.81.53-1.51s.52-1.42.8-2.14.56-1.36.81-1.92.45-.83.58-.83a7,7,0,0,1,1,.15,4.43,4.43,0,0,0,1.49.05,1.34,1.34,0,0,1,.53.63C204.83,70.11,204.94,70.33,205,70.43Z" fill="#231f20"/><path d="M218.93,81a1.25,1.25,0,0,1-.58.58,4,4,0,0,1-.83.28c-.3.07-.64.13-1,.2a10,10,0,0,0-1.16.3,15,15,0,0,0-1.61.78c-.64.36-1.28.73-1.94,1.14s-1.28.8-1.86,1.2l-1.44,1a3,3,0,0,0,1.24.73,8.36,8.36,0,0,0,1.48.43A16.51,16.51,0,0,1,213,88a10.18,10.18,0,0,1,2.05.78,5.94,5.94,0,0,1,1.68,1.28,2.81,2.81,0,0,1,.71,1.94,4.23,4.23,0,0,1-.45,1.74,11,11,0,0,1-1.21,2,15.42,15.42,0,0,1-1.69,1.84,7.86,7.86,0,0,1-1.89,1.31,3.36,3.36,0,0,0-.66.37,1.2,1.2,0,0,1-.65.28.88.88,0,0,0-.35,0,1,1,0,0,1-.36,0h-.6a1.26,1.26,0,0,1-.88-.58,3.84,3.84,0,0,1-.58-.83,1.6,1.6,0,0,0-.05-.63c-.07-.25-.15-.5-.23-.75l-.23-.73a2.7,2.7,0,0,1-.1-.51c0-.17,0-.24.08-.22s.09,0,.13-.08a2.79,2.79,0,0,0,.07-.48,1,1,0,0,1,.13-.48,8.37,8.37,0,0,1,3.15-2.37,23.62,23.62,0,0,1,3.4-1.16c0-.16-.05-.24-.15-.22a.36.36,0,0,1-.26,0,9,9,0,0,0-2.52-.4,25.48,25.48,0,0,1-2.82-.25,6.72,6.72,0,0,1-2.34-.78,2.32,2.32,0,0,1-1-2.09A4.7,4.7,0,0,0,205.2,86a4.56,4.56,0,0,1-.17-1,2.12,2.12,0,0,1,.65-1.46,7.26,7.26,0,0,1,1.61-1.28,17.46,17.46,0,0,1,2.12-1.09c.77-.33,1.5-.62,2.19-.85s1.27-.41,1.74-.53l.85-.23a2.08,2.08,0,0,0,.26-.13.9.9,0,0,1,.4-.07,3.62,3.62,0,0,1,.8.18,8.09,8.09,0,0,1,1.24.45c.42.18.82.37,1.21.55A5.61,5.61,0,0,1,218.93,81ZM213.24,92.1a5.16,5.16,0,0,0-.81.35c-.34.17-.66.34-1,.53a9.38,9.38,0,0,0-.91.58,3,3,0,0,0-.58.5c.27-.13.55-.29.83-.45l.83-.46a1,1,0,0,1-.35.58,8.14,8.14,0,0,1-.68.56,7,7,0,0,0-.75.63,1.81,1.81,0,0,0-.53.85,9.58,9.58,0,0,0,1.16-.58,13.24,13.24,0,0,0,1.33-.88,11.68,11.68,0,0,0,1.34-1.16,7.06,7.06,0,0,0,1.1-1.41Z" fill="#231f20"/><path d="M267.14,72A115.3,115.3,0,0,1,264,99c-.14.37-.28.76-.44,1.15-15.27-11-47.73,7.37-49.94,8.26-.09,0-.14,0-.11,0A112.62,112.62,0,0,0,222,99.24a116.05,116.05,0,0,0,11.86-17.1c14.14-24.84,18-52.12,12.56-75,1.3,1.71,2.56,3.49,3.76,5.33C260.77,28.64,267.14,49.38,267.14,72Z" fill="#231f20"/><path d="M263,107.66l-1.48-.62a6.46,6.46,0,0,0-1.83-.58,13.84,13.84,0,0,0-2.51-.41,18.24,18.24,0,0,0-3.15,0l-1.79.14c-.61.07-1.25.2-1.91.31a65.59,65.59,0,0,0-8.68,2.29c-3.13,1.08-6.5,2.34-10,3.77l-11.18,4.56c-3.9,1.55-7.94,3.18-12.14,4.65s-8.5,2.88-12.93,4a88.42,88.42,0,0,1-13.46,2.36,55.23,55.23,0,0,1-13.37-.23l-3.2-.53c-1-.21-2.08-.53-3.09-.8a44.53,44.53,0,0,1-5.79-2.11c-1.81-.85-3.52-1.8-5.13-2.74-1.51-1.12-3-2.09-4.36-3.21s-2.53-2.24-3.64-3.35l-2.9-3.35c-1.74-2.15-3-4.2-4.12-5.83l-2.95-5.43,3.71,4.9c1.29,1.45,2.8,3.27,4.68,5.18l3.12,2.9c1.17.94,2.44,1.86,3.72,2.86s2.83,1.72,4.31,2.64c1.57.75,3.18,1.56,4.89,2.23a41,41,0,0,0,5.42,1.6c.95.18,1.89.44,2.86.61l3,.37a25.27,25.27,0,0,0,3,.2c1,0,2,.12,3.09.05,2.08-.1,4.17-.15,6.3-.43a84.3,84.3,0,0,0,12.77-2.39c4.27-1,8.48-2.36,12.62-3.71s8.21-2.79,12.14-4.23,7.77-2.77,11.44-4,7.2-2.24,10.5-3.07a52.83,52.83,0,0,1,9.2-1.5c.7,0,1.37-.1,2-.11l1.9.08a19.51,19.51,0,0,1,3.29.45,13.23,13.23,0,0,1,2.57.8,6.85,6.85,0,0,1,1.72.87Z" fill="#231f20"/></svg>