<svg width="122" height="122" viewBox="0 0 122 122" fill="none" xmlns="http://www.w3.org/2000/svg">
<path d="M98.1192 11C98.5631 11 99.0069 11 99.4642 11C113.858 31.1549 118.102 55.8799 114.648 80.1882C114.197 82.8088 113.65 85.3382 112.914 87.8911C109.048 86.6153 109.048 86.6153 107.534 85.8498C95.4429 84.8411 85.754 88.5084 74.9412 93.6245C72.5638 94.6957 72.5638 94.6957 71.2188 94.6957C71.2188 94.2466 71.2188 93.7975 71.2188 93.3347C72.1836 92.5217 73.1507 91.7111 74.1301 90.916C75.9603 89.3141 77.3968 87.4443 78.8686 85.5095C79.1879 85.0919 79.5072 84.6742 79.8361 84.2438C96.1491 62.5675 101.508 37.7248 98.1192 11Z" fill="#FEFEFE"/>
<path d="M6 87.0879C8.31256 87.8587 8.56225 88.2685 9.8836 90.203C15.4294 97.8191 22.0315 102.683 31.2648 104.84C31.7947 104.965 32.3245 105.09 32.8705 105.218C47.5338 107.684 62.2088 102.057 75.7769 97.244C77.91 96.4942 80.0441 95.747 82.1795 95.0035C83.4927 94.5456 84.8046 94.0838 86.1149 93.6175C91.7483 91.6411 97.0996 90.2591 103.09 90.2883C103.779 90.2718 103.779 90.2718 104.481 90.255C107.663 90.2519 109.794 90.9426 112.522 92.55C112.522 93.0006 112.522 93.4512 112.522 93.9155C111.778 93.7545 111.778 93.7545 111.02 93.5901C99.7986 91.4932 89.3467 97.1393 79.2009 101.25C62.2614 108.103 43.7723 115.073 25.7168 108.126C16.9049 104.221 10.2788 97.0263 6 88.4534C6 88.0028 6 87.5522 6 87.0879Z" fill="#FEFEFE"/>
</svg>
