<svg width="500" height="500" viewBox="0 0 500 500" fill="none" xmlns="http://www.w3.org/2000/svg">
<path d="M360.463 100C361.81 100 363.157 100 364.544 100C408.217 160.439 421.092 234.582 410.614 307.476C409.246 315.334 407.587 322.919 405.354 330.575C393.621 326.749 393.621 326.749 389.03 324.453C352.343 321.428 322.946 332.426 290.138 347.767C282.925 350.98 282.925 350.98 278.844 350.98C278.844 349.633 278.844 348.286 278.844 346.899C281.771 344.46 284.706 342.03 287.677 339.645C293.23 334.842 297.589 329.235 302.054 323.433C303.023 322.18 303.992 320.928 304.99 319.637C354.486 254.636 370.745 180.14 360.463 100Z" fill="#FEFEFE"/>
<path d="M85 328.535C91.9106 330.839 92.6567 332.063 96.6053 337.845C113.177 360.606 132.906 375.142 160.498 381.588C162.081 381.961 163.665 382.335 165.296 382.72C209.114 390.087 252.967 373.272 293.512 358.887C299.886 356.646 306.264 354.414 312.645 352.192C316.569 350.823 320.489 349.443 324.405 348.049C341.239 342.143 357.23 338.013 375.131 338.1C377.189 338.051 377.189 338.051 379.288 338C388.795 337.991 395.166 340.055 403.316 344.859C403.316 346.206 403.316 347.552 403.316 348.94C401.094 348.459 401.094 348.459 398.828 347.968C365.295 341.701 334.062 358.574 303.744 370.859C253.124 391.342 197.874 412.17 143.919 391.408C117.587 379.738 97.7861 358.237 85 332.616C85 331.269 85 329.923 85 328.535Z" fill="#FEFEFE"/>
</svg>
