<?xml version="1.0" encoding="UTF-8"?>
<svg version="1.1" xmlns="http://www.w3.org/2000/svg" width="291" height="147">
<path d="M0 0 C0.66 0 1.32 0 2 0 C23.40305991 29.61986682 29.71295889 65.95591458 24.578125 101.6796875 C23.90755619 105.53092728 23.09429781 109.2481218 22 113 C16.25 111.125 16.25 111.125 14 110 C-3.9795542 108.51758682 -18.38658473 113.90708007 -34.46484375 121.42578125 C-38 123 -38 123 -40 123 C-40 122.34 -40 121.68 -40 121 C-38.56525525 119.80508062 -37.12724532 118.61380666 -35.67089844 117.4453125 C-32.94943373 115.09126939 -30.81346049 112.34328797 -28.625 109.5 C-28.15022217 108.88616455 -27.67544434 108.2723291 -27.1862793 107.63989258 C-2.92944838 75.78414211 5.03872452 39.27505808 0 0 Z " fill="#FEFEFE" transform="translate(265,0)"/>
<path d="M0 0 C3.38672739 1.12890913 3.75239171 1.7291466 5.6875 4.5625 C13.80921051 15.71738004 23.47795653 22.84106884 37 26 C37.77601563 26.18304688 38.55203125 26.36609375 39.3515625 26.5546875 C60.82585996 30.16541008 82.31727633 21.92456068 102.1875 14.875 C105.31150772 13.77679355 108.43679786 12.68249558 111.56404114 11.59353638 C113.48727711 10.92284149 115.40857198 10.24654199 117.32743835 9.56344604 C125.57753092 6.66874829 133.4145007 4.64470488 142.1875 4.6875 C143.19586914 4.66333008 143.19586914 4.66333008 144.22460938 4.63867188 C148.88390356 4.63413507 152.00589702 5.64577756 156 8 C156 8.66 156 9.32 156 10 C154.91138672 9.76410156 154.91138672 9.76410156 153.80078125 9.5234375 C137.36707638 6.45214538 122.06034512 14.72160771 107.2019043 20.74203491 C82.39420341 30.78013557 55.31709415 40.9876856 28.875 30.8125 C15.97011895 25.09367028 6.26619327 14.55612212 0 2 C0 1.34 0 0.68 0 0 Z " fill="#FEFEFE" transform="translate(130,112)"/>
<path d="M0 0 C1.65 0 3.3 0 5 0 C6.29476679 3.58741118 5.68283071 5.37271097 4.1875 8.8125 C1.06679641 16.82482547 0 25.42361245 0 34 C2.31 33.34 4.62 32.68 7 32 C6.42655063 34.86724686 6.1385485 35.8614515 4 38 C0.625 38 0.625 38 -3 37 C-6.06827846 33.44725652 -7.21136614 30.54624224 -8 26 C-8.30292969 26.71027344 -8.60585937 27.42054687 -8.91796875 28.15234375 C-9.33691406 29.07144531 -9.75585938 29.99054688 -10.1875 30.9375 C-10.59355469 31.85402344 -10.99960938 32.77054688 -11.41796875 33.71484375 C-13 36 -13 36 -15.48828125 36.94140625 C-18 37 -18 37 -21 35 C-21.53625 35.515625 -22.0725 36.03125 -22.625 36.5625 C-25 38 -25 38 -27.9375 38.25 C-32.64800505 36.32734488 -33.95744749 32.47373226 -36 28 C-36.38671875 28.6496875 -36.7734375 29.299375 -37.171875 29.96875 C-37.95304688 31.22171875 -37.95304688 31.22171875 -38.75 32.5 C-39.26046875 33.3353125 -39.7709375 34.170625 -40.296875 35.03125 C-41.13992187 36.00578125 -41.13992187 36.00578125 -42 37 C-43.32 37 -44.64 37 -46 37 C-48.65296563 31.69406874 -46.85836609 26.0035856 -45.125 20.6875 C-43.98322098 17.38479848 -42.94799262 14.92198893 -41 12 C-38.375 11.8125 -38.375 11.8125 -36 12 C-36 13.98 -36 15.96 -36 18 C-35.01 17.34 -34.02 16.68 -33 16 C-28.45945946 16.54054054 -28.45945946 16.54054054 -27 18 C-27.27780619 20.68545988 -27.60862456 23.33110245 -28 26 C-28.09667969 26.68835938 -28.19335938 27.37671875 -28.29296875 28.0859375 C-28.52372742 29.72465846 -28.76118818 31.36243325 -29 33 C-26.69 32.34 -24.38 31.68 -22 31 C-21.90203125 30.27554688 -21.8040625 29.55109375 -21.703125 28.8046875 C-20.07932011 18.30594901 -20.07932011 18.30594901 -16 14 C-12.49920646 12.97893522 -9.65900278 13 -6 13 C-4.02 8.71 -2.04 4.42 0 0 Z M-13 21 C-14.12516085 22.83284443 -14.12516085 22.83284443 -15 25 C-14.67 25.99 -14.34 26.98 -14 28 C-13.01 26.02 -12.02 24.04 -11 22 C-11.66 21.67 -12.32 21.34 -13 21 Z " fill="#FEFEFE" transform="translate(211,74)"/>
<path d="M0 0 C1.2065625 0.0309375 1.2065625 0.0309375 2.4375 0.0625 C2.4375 1.0525 2.4375 2.0425 2.4375 3.0625 C3.365625 2.835625 4.29375 2.60875 5.25 2.375 C8.4375 2.0625 8.4375 2.0625 10.25 3.375 C12.80672818 7.00824531 12.4889854 9.37744351 11.94140625 13.66796875 C11.13060145 17.52086289 9.81065554 19.89829262 7.4375 23.0625 C4.9375 24.125 4.9375 24.125 2.4375 24.0625 C0.125 23.125 0.125 23.125 -1.5625 22.0625 C-1.645 23.196875 -1.7275 24.33125 -1.8125 25.5 C-2.40813714 30.4695696 -4.35012273 34.6171652 -6.5625 39.0625 C-10.3984375 37.3359375 -10.3984375 37.3359375 -11.875 34.875 C-12.73822311 31.34363274 -12.25647137 28.601754 -11.5625 25.0625 C-12.305 25.165625 -13.0475 25.26875 -13.8125 25.375 C-16.5625 25.0625 -16.5625 25.0625 -18.8125 22.6875 C-20.5625 20.0625 -20.5625 20.0625 -21.5625 18.0625 C-22.8825 20.3725 -24.2025 22.6825 -25.5625 25.0625 C-27.9375 25.1875 -27.9375 25.1875 -30.5625 25.0625 C-32.5625 23.0625 -32.5625 23.0625 -33.0625 20.0625 C-32.90560702 13.82600412 -28.54070631 8.255483 -24.51171875 3.7890625 C-22.5625 2.0625 -22.5625 2.0625 -20.125 1.625 C-17.0697457 2.14662878 -15.10211042 3.32105285 -12.5625 5.0625 C-13.08787724 10.0927076 -13.66844786 15.08135239 -14.5625 20.0625 C-11.05643972 18.66007589 -8.96735955 17.65533006 -6.8125 14.5 C-5.44396781 10.73653647 -4.66361555 7.07694128 -3.9921875 3.13671875 C-3.36103933 0.08999438 -3.1775256 0.07750062 0 0 Z M5.4375 6.0625 C1.16220513 11.47455838 1.16220513 11.47455838 -0.5625 18.0625 C0.7575 18.3925 2.0775 18.7225 3.4375 19.0625 C3.97144179 17.6507217 4.48915104 16.23279756 5 14.8125 C5.29003906 14.02359375 5.58007812 13.2346875 5.87890625 12.421875 C6.48272837 9.87146548 6.2848932 8.50927771 5.4375 6.0625 Z " fill="#FEFEFE" transform="translate(62.5625,85.9375)"/>
<path d="M0 0 C1.65 0.99 3.3 1.98 5 3 C4.85764543 4.72945653 4.71095618 6.45855654 4.5625 8.1875 C4.48128906 9.15042969 4.40007813 10.11335938 4.31640625 11.10546875 C4.02333849 13.78649602 3.57296246 16.3662986 3 19 C5.31 19 7.62 19 10 19 C10.0825 17.906875 10.165 16.81375 10.25 15.6875 C10.91504378 10.15870322 12.96459272 5.15005376 15 0 C16.9375 0.6875 16.9375 0.6875 19 2 C20.27526727 5.70986843 19.98976995 9.13541025 19.625 13 C19.53476562 14.010625 19.44453125 15.02125 19.3515625 16.0625 C19.02982573 18.75078943 18.57365501 21.35535319 18 24 C17.34 24 16.68 24 16 24 C15.87625 25.11375 15.7525 26.2275 15.625 27.375 C15.01542458 32.30460991 14.02526315 37.14244255 13 42 C12.01 42 11.02 42 10 42 C8.46733418 38.93466836 8.89723529 35.73245728 8.9375 32.375 C8.94201172 31.66859375 8.94652344 30.9621875 8.95117188 30.234375 C8.96296125 28.48954725 8.98089676 26.744763 9 25 C6.03 25.33 3.06 25.66 0 26 C0 30.29 0 34.58 0 39 C-1.65 38.67 -3.3 38.34 -5 38 C-7.37350376 34.43974437 -7.3470011 32.21536541 -7.55859375 28.05859375 C-7.83402303 25.60707315 -7.83402303 25.60707315 -11 24 C-11 23.01 -11 22.02 -11 21 C-10.23171875 20.85691406 -9.4634375 20.71382812 -8.671875 20.56640625 C-5.58093557 18.75432042 -5.44599064 18.19601194 -4.453125 14.90234375 C-4.03107399 13.25262863 -3.63075471 11.59723277 -3.25 9.9375 C-2.84086807 8.27937216 -2.4295271 6.6217873 -2.015625 4.96484375 C-1.84321289 4.2287085 -1.67080078 3.49257324 -1.49316406 2.73413086 C-1 1 -1 1 0 0 Z " fill="#FEFEFE" transform="translate(11,71)"/>
<path d="M0 0 C0.99 0 1.98 0 3 0 C4.25127906 3.54667178 3.72285053 5.72253438 2.5625 9.25 C2.27503906 10.14203125 1.98757812 11.0340625 1.69140625 11.953125 C1.46324219 12.62859375 1.23507813 13.3040625 1 14 C1.27972656 13.4946875 1.55945313 12.989375 1.84765625 12.46875 C3.1110842 10.42126548 4.28545186 8.69332848 6 7 C9.8125 6.5625 9.8125 6.5625 13 7 C13.33 5.02 13.66 3.04 14 1 C17.21245843 1.2604696 18.6147565 1.57490372 20.8125 4 C22.93437308 9.36052146 22.81070611 14.59590192 20.625 19.9375 C19 23 19 23 17 25 C13.625 25.1875 13.625 25.1875 10 24 C8.1619766 21.16571463 7.04183693 18.20316324 6 15 C5.39671875 15.721875 4.7934375 16.44375 4.171875 17.1875 C3.37265625 18.115625 2.5734375 19.04375 1.75 20 C0.96109375 20.928125 0.1721875 21.85625 -0.640625 22.8125 C-3 25 -3 25 -7 25 C-8.35779929 19.01155573 -7.49372001 15.30468146 -5.1875 9.6875 C-4.91357422 8.97271484 -4.63964844 8.25792969 -4.35742188 7.52148438 C-3.19103804 4.55377873 -2.27711924 2.27711924 0 0 Z M13 12 C13 13.65 13 15.3 13 17 C13.33 17 13.66 17 14 17 C14 15.35 14 13.7 14 12 C13.67 12 13.34 12 13 12 Z " fill="#FDFDFD" transform="translate(128,86)"/>
<path d="M0 0 C1.32 0 2.64 0 4 0 C5.69662517 4.89886473 3.73078701 8.29225933 2 13 C5.3 9.37 8.6 5.74 12 2 C17 4 17 4 17.88842773 5.83764648 C18.02000161 8.38764617 17.57501264 10.16956081 16.78515625 12.59765625 C16.51074707 13.47719971 16.23633789 14.35674316 15.95361328 15.26293945 C15.6595459 16.18679443 15.36547852 17.11064941 15.0625 18.0625 C12.80584582 25.47059915 11.01157426 32.18411501 12 40 C10.125 40.625 10.125 40.625 8 41 C5.55549447 38.55549447 5.4237882 37.39506724 5 34 C5.08312626 31.80922077 5.23262891 29.62026234 5.4375 27.4375 C5.75884107 23.91901863 6 20.53738552 6 17 C5.1646875 18.2375 5.1646875 18.2375 4.3125 19.5 C2 22 2 22 -0.5625 22.625 C-3 22 -3 22 -4.9375 20.125 C-6.73845006 14.82808807 -5.30707194 9.78184367 -2.96484375 4.796875 C-2.03761242 3.16175738 -1.02683342 1.57447791 0 0 Z M8 13 C9 15 9 15 9 15 Z " fill="#FEFEFE" transform="translate(102,87)"/>
<path d="M0 0 C1.32 0 2.64 0 4 0 C4.66 0.66 5.32 1.32 6 2 C6.804375 1.95875 7.60875 1.9175 8.4375 1.875 C11 2 11 2 12.8125 3.4375 C14.93687913 8.02168654 14.76864318 12.53703585 13.2734375 17.328125 C11.76827907 20.73002779 10.91333703 22.59902277 7.4375 24.125 C5 24 5 24 2 22 C1.65066406 23.05960938 1.30132812 24.11921875 0.94140625 25.2109375 C0.48185012 26.59898459 0.02221036 27.98700399 -0.4375 29.375 C-0.66759766 30.07367188 -0.89769531 30.77234375 -1.13476562 31.4921875 C-2.88671875 36.7734375 -2.88671875 36.7734375 -4 39 C-5.875 38.6875 -5.875 38.6875 -8 38 C-10.51346974 34.22979539 -10.35941018 32.48341161 -10 28 C-9.23961021 25.30827534 -8.20375689 22.76564146 -7.125 20.1875 C-4.95624888 14.76310917 -3.24996553 9.63666268 -2.421875 3.8203125 C-2 2 -2 2 0 0 Z M7 6 C6.15885829 7.43294498 5.32734313 8.87154405 4.5 10.3125 C4.0359375 11.11300781 3.571875 11.91351563 3.09375 12.73828125 C1.78232114 15.0314118 1.78232114 15.0314118 2 18 C2.99 18.33 3.98 18.66 5 19 C7.66590937 14.44573816 8.31563182 11.26053037 8 6 C7.67 6 7.34 6 7 6 Z " fill="#FEFEFE" transform="translate(81,86)"/>
<path d="M0 0 C0 0.99 0 1.98 0 3 C-3.3 4.32 -6.6 5.64 -10 7 C-8.700625 7.556875 -7.40125 8.11375 -6.0625 8.6875 C-2.18366892 10.65102906 -2.18366892 10.65102906 -0.75 13.375 C-1.10544761 17.10719992 -2.68475252 19.10594065 -5 22 C-8.22213757 24.14809171 -9.27775401 24.29386153 -13 24 C-14 23 -14 23 -14.1875 19.5625 C-14 16 -14 16 -12 14 C-12.804375 13.62875 -13.60875 13.2575 -14.4375 12.875 C-17 11 -17 11 -18.0625 8.0625 C-18 5 -18 5 -16.5625 2.8125 C-10.98104438 -1.13535886 -6.52479147 -3.09927595 0 0 Z " fill="#FEFEFE" transform="translate(233,88)"/>
<path d="M0 0 C1.32 0.66 2.64 1.32 4 2 C4.2393986 7.38646855 3.47990055 12.18111313 2.33984375 17.44921875 C2.00002891 19.99978303 2.19072773 21.58350169 3 24 C1.68 24 0.36 24 -1 24 C-4.41814611 20.3377006 -4.49296685 16.42299525 -4.37109375 11.6484375 C-3.77210285 7.37353402 -2.03941972 3.76928466 0 0 Z " fill="#FEFEFE" transform="translate(157,87)"/>
<path d="M0 0 C5.75 1.75 5.75 1.75 8 4 C8 4.99 8 5.98 8 7 C5.6875 7.6875 5.6875 7.6875 3 8 C1.1875 6.875 1.1875 6.875 0 5 C-0.1875 2.3125 -0.1875 2.3125 0 0 Z " fill="#FEFEFE" transform="translate(157,78)"/>
</svg>
